<mxfile host="app.diagrams.net" modified="2023-12-04T19:38:10.093Z" agent="Mozilla/5.0 (Windows NT 10.0; Win64; x64) AppleWebKit/537.36 (KHTML, like Gecko) Chrome/119.0.0.0 Safari/537.36" etag="ijJxDmE-FiSjwKZt80hw" version="22.1.5" type="github">
  <diagram name="Page-1" id="f1b7ffb7-ca1e-a977-7cf5-a751b3c06c05">
    <mxGraphModel dx="933" dy="373" grid="1" gridSize="10" guides="1" tooltips="1" connect="1" arrows="1" fold="1" page="1" pageScale="1" pageWidth="826" pageHeight="1169" background="none" math="0" shadow="0">
      <root>
        <mxCell id="0" />
        <mxCell id="1" parent="0" />
        <mxCell id="I92gJAP5rcWPBIsObnvG-62" value="" style="swimlane;startSize=0;" vertex="1" parent="1">
          <mxGeometry x="320" y="40" width="200" height="360" as="geometry" />
        </mxCell>
        <mxCell id="I92gJAP5rcWPBIsObnvG-63" value="" style="ellipse;whiteSpace=wrap;html=1;aspect=fixed;" vertex="1" parent="I92gJAP5rcWPBIsObnvG-62">
          <mxGeometry x="10" y="320" width="30" height="30" as="geometry" />
        </mxCell>
        <mxCell id="I92gJAP5rcWPBIsObnvG-66" value="" style="shape=cross;whiteSpace=wrap;html=1;size=0.2;rotation=-45;" vertex="1" parent="I92gJAP5rcWPBIsObnvG-62">
          <mxGeometry x="15" y="325" width="20" height="20" as="geometry" />
        </mxCell>
        <mxCell id="I92gJAP5rcWPBIsObnvG-69" value="" style="rounded=0;whiteSpace=wrap;html=1;" vertex="1" parent="I92gJAP5rcWPBIsObnvG-62">
          <mxGeometry width="200" height="30" as="geometry" />
        </mxCell>
        <mxCell id="I92gJAP5rcWPBIsObnvG-74" value="" style="rounded=1;whiteSpace=wrap;html=1;" vertex="1" parent="I92gJAP5rcWPBIsObnvG-62">
          <mxGeometry x="110" y="320" width="80" height="30" as="geometry" />
        </mxCell>
        <mxCell id="I92gJAP5rcWPBIsObnvG-75" value="Nova Tarefa" style="text;html=1;strokeColor=none;fillColor=none;align=center;verticalAlign=middle;whiteSpace=wrap;rounded=0;" vertex="1" parent="I92gJAP5rcWPBIsObnvG-62">
          <mxGeometry x="110" y="320" width="80" height="30" as="geometry" />
        </mxCell>
        <mxCell id="I92gJAP5rcWPBIsObnvG-68" style="edgeStyle=orthogonalEdgeStyle;rounded=0;orthogonalLoop=1;jettySize=auto;html=1;exitX=1;exitY=0.5;exitDx=0;exitDy=0;entryX=0;entryY=0.5;entryDx=0;entryDy=0;" edge="1" parent="1" source="I92gJAP5rcWPBIsObnvG-64" target="I92gJAP5rcWPBIsObnvG-62">
          <mxGeometry relative="1" as="geometry" />
        </mxCell>
        <mxCell id="I92gJAP5rcWPBIsObnvG-64" value="" style="swimlane;startSize=0;" vertex="1" parent="1">
          <mxGeometry x="40" y="40" width="200" height="360" as="geometry" />
        </mxCell>
        <mxCell id="I92gJAP5rcWPBIsObnvG-65" value="" style="ellipse;whiteSpace=wrap;html=1;aspect=fixed;" vertex="1" parent="I92gJAP5rcWPBIsObnvG-64">
          <mxGeometry x="60" y="130" width="80" height="80" as="geometry" />
        </mxCell>
        <mxCell id="I92gJAP5rcWPBIsObnvG-76" value="Nome App" style="text;html=1;strokeColor=none;fillColor=none;align=center;verticalAlign=middle;whiteSpace=wrap;rounded=0;" vertex="1" parent="1">
          <mxGeometry x="320" y="40" width="70" height="30" as="geometry" />
        </mxCell>
        <mxCell id="I92gJAP5rcWPBIsObnvG-95" style="edgeStyle=orthogonalEdgeStyle;rounded=0;orthogonalLoop=1;jettySize=auto;html=1;exitX=0.5;exitY=1;exitDx=0;exitDy=0;entryX=0;entryY=0.5;entryDx=0;entryDy=0;" edge="1" parent="1" source="I92gJAP5rcWPBIsObnvG-78" target="I92gJAP5rcWPBIsObnvG-94">
          <mxGeometry relative="1" as="geometry">
            <Array as="points">
              <mxPoint x="700" y="440" />
              <mxPoint x="20" y="440" />
              <mxPoint x="20" y="660" />
            </Array>
          </mxGeometry>
        </mxCell>
        <mxCell id="I92gJAP5rcWPBIsObnvG-78" value="" style="swimlane;startSize=0;" vertex="1" parent="1">
          <mxGeometry x="600" y="40" width="200" height="360" as="geometry" />
        </mxCell>
        <mxCell id="I92gJAP5rcWPBIsObnvG-79" value="" style="rounded=0;whiteSpace=wrap;html=1;" vertex="1" parent="I92gJAP5rcWPBIsObnvG-78">
          <mxGeometry y="190" width="200" height="170" as="geometry" />
        </mxCell>
        <mxCell id="I92gJAP5rcWPBIsObnvG-82" value="Nova Tarefa" style="text;strokeColor=none;fillColor=none;html=1;fontSize=24;fontStyle=1;verticalAlign=middle;align=center;" vertex="1" parent="I92gJAP5rcWPBIsObnvG-78">
          <mxGeometry x="20" y="200" width="100" height="40" as="geometry" />
        </mxCell>
        <mxCell id="I92gJAP5rcWPBIsObnvG-83" value="" style="rounded=1;whiteSpace=wrap;html=1;" vertex="1" parent="I92gJAP5rcWPBIsObnvG-78">
          <mxGeometry x="10" y="240" width="180" height="20" as="geometry" />
        </mxCell>
        <mxCell id="I92gJAP5rcWPBIsObnvG-84" value="" style="rounded=1;whiteSpace=wrap;html=1;" vertex="1" parent="I92gJAP5rcWPBIsObnvG-78">
          <mxGeometry x="10" y="270" width="180" height="20" as="geometry" />
        </mxCell>
        <mxCell id="I92gJAP5rcWPBIsObnvG-85" value="Nome" style="text;html=1;strokeColor=none;fillColor=none;align=center;verticalAlign=middle;whiteSpace=wrap;rounded=0;" vertex="1" parent="I92gJAP5rcWPBIsObnvG-78">
          <mxGeometry y="235" width="60" height="30" as="geometry" />
        </mxCell>
        <mxCell id="I92gJAP5rcWPBIsObnvG-87" value="Descrição" style="text;html=1;strokeColor=none;fillColor=none;align=center;verticalAlign=middle;whiteSpace=wrap;rounded=0;" vertex="1" parent="I92gJAP5rcWPBIsObnvG-78">
          <mxGeometry x="10" y="265" width="60" height="30" as="geometry" />
        </mxCell>
        <mxCell id="I92gJAP5rcWPBIsObnvG-88" value="" style="rounded=1;whiteSpace=wrap;html=1;" vertex="1" parent="I92gJAP5rcWPBIsObnvG-78">
          <mxGeometry x="45" y="330" width="105" height="25" as="geometry" />
        </mxCell>
        <mxCell id="I92gJAP5rcWPBIsObnvG-89" value="Selecionar Horario" style="text;html=1;strokeColor=none;fillColor=none;align=center;verticalAlign=middle;whiteSpace=wrap;rounded=0;" vertex="1" parent="I92gJAP5rcWPBIsObnvG-78">
          <mxGeometry x="67.5" y="295" width="60" height="30" as="geometry" />
        </mxCell>
        <mxCell id="I92gJAP5rcWPBIsObnvG-90" value="Criar Tarefa" style="text;html=1;strokeColor=none;fillColor=none;align=center;verticalAlign=middle;whiteSpace=wrap;rounded=0;" vertex="1" parent="I92gJAP5rcWPBIsObnvG-78">
          <mxGeometry x="61.5" y="327.5" width="72" height="30" as="geometry" />
        </mxCell>
        <mxCell id="I92gJAP5rcWPBIsObnvG-91" value="" style="rounded=0;whiteSpace=wrap;html=1;" vertex="1" parent="I92gJAP5rcWPBIsObnvG-78">
          <mxGeometry width="200" height="30" as="geometry" />
        </mxCell>
        <mxCell id="I92gJAP5rcWPBIsObnvG-92" value="Nome App" style="text;html=1;strokeColor=none;fillColor=none;align=center;verticalAlign=middle;whiteSpace=wrap;rounded=0;" vertex="1" parent="I92gJAP5rcWPBIsObnvG-78">
          <mxGeometry width="70" height="30" as="geometry" />
        </mxCell>
        <mxCell id="I92gJAP5rcWPBIsObnvG-155" style="edgeStyle=orthogonalEdgeStyle;rounded=0;orthogonalLoop=1;jettySize=auto;html=1;exitX=1;exitY=0.25;exitDx=0;exitDy=0;entryX=0;entryY=0.25;entryDx=0;entryDy=0;strokeColor=#0008FF;" edge="1" parent="1" source="I92gJAP5rcWPBIsObnvG-94" target="I92gJAP5rcWPBIsObnvG-115">
          <mxGeometry relative="1" as="geometry" />
        </mxCell>
        <mxCell id="I92gJAP5rcWPBIsObnvG-175" style="edgeStyle=orthogonalEdgeStyle;rounded=0;orthogonalLoop=1;jettySize=auto;html=1;exitX=1;exitY=0.5;exitDx=0;exitDy=0;entryX=0;entryY=0.5;entryDx=0;entryDy=0;" edge="1" parent="1" source="I92gJAP5rcWPBIsObnvG-94" target="I92gJAP5rcWPBIsObnvG-167">
          <mxGeometry relative="1" as="geometry" />
        </mxCell>
        <mxCell id="I92gJAP5rcWPBIsObnvG-94" value="" style="swimlane;startSize=0;" vertex="1" parent="1">
          <mxGeometry x="40" y="480" width="200" height="360" as="geometry" />
        </mxCell>
        <mxCell id="I92gJAP5rcWPBIsObnvG-96" value="" style="rounded=0;whiteSpace=wrap;html=1;" vertex="1" parent="I92gJAP5rcWPBIsObnvG-94">
          <mxGeometry width="200" height="30" as="geometry" />
        </mxCell>
        <mxCell id="I92gJAP5rcWPBIsObnvG-97" value="Nome App" style="text;html=1;strokeColor=none;fillColor=none;align=center;verticalAlign=middle;whiteSpace=wrap;rounded=0;" vertex="1" parent="I92gJAP5rcWPBIsObnvG-94">
          <mxGeometry width="70" height="30" as="geometry" />
        </mxCell>
        <mxCell id="I92gJAP5rcWPBIsObnvG-100" value="" style="rounded=1;whiteSpace=wrap;html=1;" vertex="1" parent="I92gJAP5rcWPBIsObnvG-94">
          <mxGeometry x="110" y="320" width="80" height="30" as="geometry" />
        </mxCell>
        <mxCell id="I92gJAP5rcWPBIsObnvG-98" value="Nova Tarefa" style="text;html=1;strokeColor=none;fillColor=none;align=center;verticalAlign=middle;whiteSpace=wrap;rounded=0;" vertex="1" parent="I92gJAP5rcWPBIsObnvG-94">
          <mxGeometry x="110" y="320" width="80" height="30" as="geometry" />
        </mxCell>
        <mxCell id="I92gJAP5rcWPBIsObnvG-104" value="" style="ellipse;whiteSpace=wrap;html=1;aspect=fixed;" vertex="1" parent="I92gJAP5rcWPBIsObnvG-94">
          <mxGeometry x="10" y="320" width="30" height="30" as="geometry" />
        </mxCell>
        <mxCell id="I92gJAP5rcWPBIsObnvG-105" value="" style="shape=cross;whiteSpace=wrap;html=1;size=0.2;rotation=-45;" vertex="1" parent="I92gJAP5rcWPBIsObnvG-94">
          <mxGeometry x="15" y="325" width="20" height="20" as="geometry" />
        </mxCell>
        <mxCell id="I92gJAP5rcWPBIsObnvG-109" value="" style="rounded=1;whiteSpace=wrap;html=1;" vertex="1" parent="I92gJAP5rcWPBIsObnvG-94">
          <mxGeometry x="10" y="50" width="180" height="30" as="geometry" />
        </mxCell>
        <mxCell id="I92gJAP5rcWPBIsObnvG-113" value="" style="rounded=0;whiteSpace=wrap;html=1;" vertex="1" parent="I92gJAP5rcWPBIsObnvG-94">
          <mxGeometry x="20" y="60" width="10" height="10" as="geometry" />
        </mxCell>
        <mxCell id="I92gJAP5rcWPBIsObnvG-114" value="Tarefa 1" style="text;html=1;strokeColor=none;fillColor=none;align=center;verticalAlign=middle;whiteSpace=wrap;rounded=0;" vertex="1" parent="I92gJAP5rcWPBIsObnvG-94">
          <mxGeometry x="30" y="50" width="60" height="30" as="geometry" />
        </mxCell>
        <mxCell id="I92gJAP5rcWPBIsObnvG-121" value="15:30" style="text;html=1;strokeColor=none;fillColor=none;align=center;verticalAlign=middle;whiteSpace=wrap;rounded=0;" vertex="1" parent="I92gJAP5rcWPBIsObnvG-94">
          <mxGeometry x="130" y="50" width="60" height="30" as="geometry" />
        </mxCell>
        <mxCell id="I92gJAP5rcWPBIsObnvG-122" value="" style="rounded=1;whiteSpace=wrap;html=1;" vertex="1" parent="I92gJAP5rcWPBIsObnvG-94">
          <mxGeometry x="10" y="90" width="180" height="30" as="geometry" />
        </mxCell>
        <mxCell id="I92gJAP5rcWPBIsObnvG-123" value="" style="rounded=0;whiteSpace=wrap;html=1;" vertex="1" parent="I92gJAP5rcWPBIsObnvG-94">
          <mxGeometry x="20" y="100" width="10" height="10" as="geometry" />
        </mxCell>
        <mxCell id="I92gJAP5rcWPBIsObnvG-124" value="Tarefa 2" style="text;html=1;strokeColor=none;fillColor=none;align=center;verticalAlign=middle;whiteSpace=wrap;rounded=0;" vertex="1" parent="I92gJAP5rcWPBIsObnvG-94">
          <mxGeometry x="30" y="90" width="60" height="30" as="geometry" />
        </mxCell>
        <mxCell id="I92gJAP5rcWPBIsObnvG-115" value="" style="swimlane;startSize=0;" vertex="1" parent="1">
          <mxGeometry x="40" y="920" width="200" height="360" as="geometry" />
        </mxCell>
        <mxCell id="I92gJAP5rcWPBIsObnvG-117" value="" style="rounded=0;whiteSpace=wrap;html=1;" vertex="1" parent="I92gJAP5rcWPBIsObnvG-115">
          <mxGeometry width="200" height="30" as="geometry" />
        </mxCell>
        <mxCell id="I92gJAP5rcWPBIsObnvG-118" value="Nome App" style="text;html=1;strokeColor=none;fillColor=none;align=center;verticalAlign=middle;whiteSpace=wrap;rounded=0;" vertex="1" parent="I92gJAP5rcWPBIsObnvG-115">
          <mxGeometry width="70" height="30" as="geometry" />
        </mxCell>
        <mxCell id="I92gJAP5rcWPBIsObnvG-119" value="Nome da Tarefa:" style="text;html=1;strokeColor=none;fillColor=none;align=center;verticalAlign=middle;whiteSpace=wrap;rounded=0;" vertex="1" parent="I92gJAP5rcWPBIsObnvG-115">
          <mxGeometry x="41.5" y="50" width="118.5" height="30" as="geometry" />
        </mxCell>
        <mxCell id="I92gJAP5rcWPBIsObnvG-120" value="Descrição da Tarefa:" style="text;html=1;strokeColor=none;fillColor=none;align=center;verticalAlign=middle;whiteSpace=wrap;rounded=0;" vertex="1" parent="I92gJAP5rcWPBIsObnvG-115">
          <mxGeometry x="41.5" y="130" width="117" height="30" as="geometry" />
        </mxCell>
        <mxCell id="I92gJAP5rcWPBIsObnvG-125" value="" style="swimlane;startSize=0;" vertex="1" parent="1">
          <mxGeometry x="600" y="480" width="200" height="360" as="geometry" />
        </mxCell>
        <mxCell id="I92gJAP5rcWPBIsObnvG-127" value="" style="rounded=1;whiteSpace=wrap;html=1;" vertex="1" parent="I92gJAP5rcWPBIsObnvG-125">
          <mxGeometry x="110" y="320" width="80" height="30" as="geometry" />
        </mxCell>
        <mxCell id="I92gJAP5rcWPBIsObnvG-128" value="Nova Tarefa" style="text;html=1;strokeColor=none;fillColor=none;align=center;verticalAlign=middle;whiteSpace=wrap;rounded=0;" vertex="1" parent="I92gJAP5rcWPBIsObnvG-125">
          <mxGeometry x="110" y="320" width="80" height="30" as="geometry" />
        </mxCell>
        <mxCell id="I92gJAP5rcWPBIsObnvG-129" value="" style="ellipse;whiteSpace=wrap;html=1;aspect=fixed;" vertex="1" parent="I92gJAP5rcWPBIsObnvG-125">
          <mxGeometry x="10" y="320" width="30" height="30" as="geometry" />
        </mxCell>
        <mxCell id="I92gJAP5rcWPBIsObnvG-130" value="" style="shape=cross;whiteSpace=wrap;html=1;size=0.2;rotation=-45;" vertex="1" parent="I92gJAP5rcWPBIsObnvG-125">
          <mxGeometry x="15" y="325" width="20" height="20" as="geometry" />
        </mxCell>
        <mxCell id="I92gJAP5rcWPBIsObnvG-132" value="" style="rounded=0;whiteSpace=wrap;html=1;" vertex="1" parent="I92gJAP5rcWPBIsObnvG-125">
          <mxGeometry width="200" height="30" as="geometry" />
        </mxCell>
        <mxCell id="I92gJAP5rcWPBIsObnvG-133" value="Nome App" style="text;html=1;strokeColor=none;fillColor=none;align=center;verticalAlign=middle;whiteSpace=wrap;rounded=0;" vertex="1" parent="I92gJAP5rcWPBIsObnvG-125">
          <mxGeometry width="70" height="30" as="geometry" />
        </mxCell>
        <mxCell id="I92gJAP5rcWPBIsObnvG-139" value="" style="rounded=1;whiteSpace=wrap;html=1;" vertex="1" parent="I92gJAP5rcWPBIsObnvG-125">
          <mxGeometry x="10" y="50" width="180" height="30" as="geometry" />
        </mxCell>
        <mxCell id="I92gJAP5rcWPBIsObnvG-140" value="" style="rounded=0;whiteSpace=wrap;html=1;" vertex="1" parent="I92gJAP5rcWPBIsObnvG-125">
          <mxGeometry x="20" y="60" width="10" height="10" as="geometry" />
        </mxCell>
        <mxCell id="I92gJAP5rcWPBIsObnvG-141" value="Tarefa 1" style="text;html=1;strokeColor=none;fillColor=none;align=center;verticalAlign=middle;whiteSpace=wrap;rounded=0;" vertex="1" parent="I92gJAP5rcWPBIsObnvG-125">
          <mxGeometry x="30" y="50" width="60" height="30" as="geometry" />
        </mxCell>
        <mxCell id="I92gJAP5rcWPBIsObnvG-142" value="15:30" style="text;html=1;strokeColor=none;fillColor=none;align=center;verticalAlign=middle;whiteSpace=wrap;rounded=0;" vertex="1" parent="I92gJAP5rcWPBIsObnvG-125">
          <mxGeometry x="130" y="50" width="60" height="30" as="geometry" />
        </mxCell>
        <mxCell id="I92gJAP5rcWPBIsObnvG-143" value="" style="rounded=1;whiteSpace=wrap;html=1;" vertex="1" parent="I92gJAP5rcWPBIsObnvG-125">
          <mxGeometry x="10" y="90" width="180" height="30" as="geometry" />
        </mxCell>
        <mxCell id="I92gJAP5rcWPBIsObnvG-144" value="" style="rounded=0;whiteSpace=wrap;html=1;" vertex="1" parent="I92gJAP5rcWPBIsObnvG-125">
          <mxGeometry x="20" y="100" width="10" height="10" as="geometry" />
        </mxCell>
        <mxCell id="I92gJAP5rcWPBIsObnvG-145" value="Tarefa 2" style="text;html=1;strokeColor=none;fillColor=none;align=center;verticalAlign=middle;whiteSpace=wrap;rounded=0;" vertex="1" parent="I92gJAP5rcWPBIsObnvG-125">
          <mxGeometry x="30" y="90" width="60" height="30" as="geometry" />
        </mxCell>
        <mxCell id="I92gJAP5rcWPBIsObnvG-150" value="Deletar as tarefas completadas" style="strokeWidth=1;shadow=0;dashed=0;align=center;html=1;shape=mxgraph.mockup.containers.rrect;rSize=0;strokeColor=#666666;fontColor=#666666;fontSize=17;verticalAlign=top;whiteSpace=wrap;fillColor=#ffffff;spacingTop=32;" vertex="1" parent="I92gJAP5rcWPBIsObnvG-125">
          <mxGeometry y="110" width="200" height="140" as="geometry" />
        </mxCell>
        <mxCell id="I92gJAP5rcWPBIsObnvG-151" value="Deletar" style="strokeWidth=1;shadow=0;dashed=0;align=center;html=1;shape=mxgraph.mockup.containers.rrect;rSize=0;fontSize=17;fontColor=#666666;strokeColor=#666666;align=left;spacingLeft=8;fillColor=none;resizeWidth=1;whiteSpace=wrap;" vertex="1" parent="I92gJAP5rcWPBIsObnvG-150">
          <mxGeometry width="200" height="30" relative="1" as="geometry" />
        </mxCell>
        <mxCell id="I92gJAP5rcWPBIsObnvG-152" value="" style="shape=ellipse;strokeColor=#008cff;resizable=0;fillColor=none;html=1;" vertex="1" parent="I92gJAP5rcWPBIsObnvG-151">
          <mxGeometry x="1" y="0.5" width="20" height="20" relative="1" as="geometry">
            <mxPoint x="-25" y="-10" as="offset" />
          </mxGeometry>
        </mxCell>
        <mxCell id="I92gJAP5rcWPBIsObnvG-153" value="Cancel" style="strokeWidth=1;shadow=0;dashed=0;align=center;html=1;shape=mxgraph.mockup.containers.rrect;rSize=0;fontSize=16;fontColor=#666666;strokeColor=#c4c4c4;whiteSpace=wrap;fillColor=none;" vertex="1" parent="I92gJAP5rcWPBIsObnvG-150">
          <mxGeometry x="0.25" y="1" width="90" height="25" relative="1" as="geometry">
            <mxPoint x="-45" y="-33" as="offset" />
          </mxGeometry>
        </mxCell>
        <mxCell id="I92gJAP5rcWPBIsObnvG-154" value="OK" style="strokeWidth=1;shadow=0;dashed=0;align=center;html=1;shape=mxgraph.mockup.containers.rrect;rSize=0;fontSize=16;fontColor=#666666;strokeColor=#c4c4c4;whiteSpace=wrap;fillColor=none;" vertex="1" parent="I92gJAP5rcWPBIsObnvG-150">
          <mxGeometry x="0.75" y="1" width="90" height="25" relative="1" as="geometry">
            <mxPoint x="-45" y="-33" as="offset" />
          </mxGeometry>
        </mxCell>
        <mxCell id="I92gJAP5rcWPBIsObnvG-167" value="" style="swimlane;startSize=0;" vertex="1" parent="1">
          <mxGeometry x="320" y="480" width="200" height="360" as="geometry" />
        </mxCell>
        <mxCell id="I92gJAP5rcWPBIsObnvG-168" value="" style="ellipse;whiteSpace=wrap;html=1;aspect=fixed;" vertex="1" parent="I92gJAP5rcWPBIsObnvG-167">
          <mxGeometry x="10" y="320" width="30" height="30" as="geometry" />
        </mxCell>
        <mxCell id="I92gJAP5rcWPBIsObnvG-169" value="" style="shape=cross;whiteSpace=wrap;html=1;size=0.2;rotation=-45;" vertex="1" parent="I92gJAP5rcWPBIsObnvG-167">
          <mxGeometry x="15" y="325" width="20" height="20" as="geometry" />
        </mxCell>
        <mxCell id="I92gJAP5rcWPBIsObnvG-170" value="" style="rounded=0;whiteSpace=wrap;html=1;" vertex="1" parent="I92gJAP5rcWPBIsObnvG-167">
          <mxGeometry width="200" height="30" as="geometry" />
        </mxCell>
        <mxCell id="I92gJAP5rcWPBIsObnvG-171" value="" style="rounded=1;whiteSpace=wrap;html=1;" vertex="1" parent="I92gJAP5rcWPBIsObnvG-167">
          <mxGeometry x="110" y="320" width="80" height="30" as="geometry" />
        </mxCell>
        <mxCell id="I92gJAP5rcWPBIsObnvG-172" value="Nova Tarefa" style="text;html=1;strokeColor=none;fillColor=none;align=center;verticalAlign=middle;whiteSpace=wrap;rounded=0;" vertex="1" parent="I92gJAP5rcWPBIsObnvG-167">
          <mxGeometry x="110" y="320" width="80" height="30" as="geometry" />
        </mxCell>
        <mxCell id="I92gJAP5rcWPBIsObnvG-174" value="Nome App" style="text;html=1;strokeColor=none;fillColor=none;align=center;verticalAlign=middle;whiteSpace=wrap;rounded=0;" vertex="1" parent="I92gJAP5rcWPBIsObnvG-167">
          <mxGeometry width="70" height="30" as="geometry" />
        </mxCell>
        <mxCell id="I92gJAP5rcWPBIsObnvG-176" value="" style="rounded=1;whiteSpace=wrap;html=1;" vertex="1" parent="I92gJAP5rcWPBIsObnvG-167">
          <mxGeometry x="10" y="50" width="180" height="30" as="geometry" />
        </mxCell>
        <mxCell id="I92gJAP5rcWPBIsObnvG-177" value="" style="rounded=0;whiteSpace=wrap;html=1;fillColor=#050505;" vertex="1" parent="I92gJAP5rcWPBIsObnvG-167">
          <mxGeometry x="20" y="60" width="10" height="10" as="geometry" />
        </mxCell>
        <mxCell id="I92gJAP5rcWPBIsObnvG-178" value="Tarefa 1" style="text;html=1;strokeColor=none;fillColor=none;align=center;verticalAlign=middle;whiteSpace=wrap;rounded=0;" vertex="1" parent="I92gJAP5rcWPBIsObnvG-167">
          <mxGeometry x="30" y="50" width="60" height="30" as="geometry" />
        </mxCell>
        <mxCell id="I92gJAP5rcWPBIsObnvG-179" value="15:30" style="text;html=1;strokeColor=none;fillColor=none;align=center;verticalAlign=middle;whiteSpace=wrap;rounded=0;" vertex="1" parent="I92gJAP5rcWPBIsObnvG-167">
          <mxGeometry x="130" y="50" width="60" height="30" as="geometry" />
        </mxCell>
        <mxCell id="I92gJAP5rcWPBIsObnvG-180" value="" style="rounded=1;whiteSpace=wrap;html=1;" vertex="1" parent="I92gJAP5rcWPBIsObnvG-167">
          <mxGeometry x="10" y="90" width="180" height="30" as="geometry" />
        </mxCell>
        <mxCell id="I92gJAP5rcWPBIsObnvG-181" value="" style="rounded=0;whiteSpace=wrap;html=1;" vertex="1" parent="I92gJAP5rcWPBIsObnvG-167">
          <mxGeometry x="20" y="100" width="10" height="10" as="geometry" />
        </mxCell>
        <mxCell id="I92gJAP5rcWPBIsObnvG-182" value="Tarefa 2" style="text;html=1;strokeColor=none;fillColor=none;align=center;verticalAlign=middle;whiteSpace=wrap;rounded=0;" vertex="1" parent="I92gJAP5rcWPBIsObnvG-167">
          <mxGeometry x="30" y="90" width="60" height="30" as="geometry" />
        </mxCell>
        <mxCell id="I92gJAP5rcWPBIsObnvG-183" value="" style="line;strokeWidth=2;html=1;" vertex="1" parent="I92gJAP5rcWPBIsObnvG-167">
          <mxGeometry x="35" y="60" width="50" height="10" as="geometry" />
        </mxCell>
        <mxCell id="I92gJAP5rcWPBIsObnvG-184" style="edgeStyle=orthogonalEdgeStyle;rounded=0;orthogonalLoop=1;jettySize=auto;html=1;exitX=-0.002;exitY=0.934;exitDx=0;exitDy=0;entryX=0;entryY=0.5;entryDx=0;entryDy=0;exitPerimeter=0;strokeColor=#0008FF;" edge="1" parent="1" source="I92gJAP5rcWPBIsObnvG-167" target="I92gJAP5rcWPBIsObnvG-125">
          <mxGeometry relative="1" as="geometry" />
        </mxCell>
        <mxCell id="I92gJAP5rcWPBIsObnvG-185" style="edgeStyle=orthogonalEdgeStyle;rounded=0;orthogonalLoop=1;jettySize=auto;html=1;exitX=0.998;exitY=0.936;exitDx=0;exitDy=0;entryX=0;entryY=0.5;entryDx=0;entryDy=0;exitPerimeter=0;strokeColor=#0008FF;" edge="1" parent="1" source="I92gJAP5rcWPBIsObnvG-62" target="I92gJAP5rcWPBIsObnvG-78">
          <mxGeometry relative="1" as="geometry" />
        </mxCell>
        <mxCell id="I92gJAP5rcWPBIsObnvG-186" value="" style="swimlane;startSize=0;" vertex="1" parent="1">
          <mxGeometry x="600" y="920" width="200" height="360" as="geometry" />
        </mxCell>
        <mxCell id="I92gJAP5rcWPBIsObnvG-187" value="" style="ellipse;whiteSpace=wrap;html=1;aspect=fixed;" vertex="1" parent="I92gJAP5rcWPBIsObnvG-186">
          <mxGeometry x="10" y="320" width="30" height="30" as="geometry" />
        </mxCell>
        <mxCell id="I92gJAP5rcWPBIsObnvG-188" value="" style="shape=cross;whiteSpace=wrap;html=1;size=0.2;rotation=-45;" vertex="1" parent="I92gJAP5rcWPBIsObnvG-186">
          <mxGeometry x="15" y="325" width="20" height="20" as="geometry" />
        </mxCell>
        <mxCell id="I92gJAP5rcWPBIsObnvG-189" value="" style="rounded=0;whiteSpace=wrap;html=1;" vertex="1" parent="I92gJAP5rcWPBIsObnvG-186">
          <mxGeometry width="200" height="30" as="geometry" />
        </mxCell>
        <mxCell id="I92gJAP5rcWPBIsObnvG-190" value="" style="rounded=1;whiteSpace=wrap;html=1;" vertex="1" parent="I92gJAP5rcWPBIsObnvG-186">
          <mxGeometry x="110" y="320" width="80" height="30" as="geometry" />
        </mxCell>
        <mxCell id="I92gJAP5rcWPBIsObnvG-191" value="Nova Tarefa" style="text;html=1;strokeColor=none;fillColor=none;align=center;verticalAlign=middle;whiteSpace=wrap;rounded=0;" vertex="1" parent="I92gJAP5rcWPBIsObnvG-186">
          <mxGeometry x="110" y="320" width="80" height="30" as="geometry" />
        </mxCell>
        <mxCell id="I92gJAP5rcWPBIsObnvG-194" value="" style="rounded=1;whiteSpace=wrap;html=1;" vertex="1" parent="I92gJAP5rcWPBIsObnvG-186">
          <mxGeometry x="10" y="50" width="180" height="30" as="geometry" />
        </mxCell>
        <mxCell id="I92gJAP5rcWPBIsObnvG-195" value="" style="rounded=0;whiteSpace=wrap;html=1;" vertex="1" parent="I92gJAP5rcWPBIsObnvG-186">
          <mxGeometry x="25" y="60" width="10" height="10" as="geometry" />
        </mxCell>
        <mxCell id="I92gJAP5rcWPBIsObnvG-196" value="Tarefa 2" style="text;html=1;strokeColor=none;fillColor=none;align=center;verticalAlign=middle;whiteSpace=wrap;rounded=0;" vertex="1" parent="I92gJAP5rcWPBIsObnvG-186">
          <mxGeometry x="35" y="50" width="60" height="30" as="geometry" />
        </mxCell>
        <mxCell id="I92gJAP5rcWPBIsObnvG-192" value="Nome App" style="text;html=1;strokeColor=none;fillColor=none;align=center;verticalAlign=middle;whiteSpace=wrap;rounded=0;" vertex="1" parent="1">
          <mxGeometry x="600" y="920" width="70" height="30" as="geometry" />
        </mxCell>
        <mxCell id="I92gJAP5rcWPBIsObnvG-193" style="edgeStyle=orthogonalEdgeStyle;rounded=0;orthogonalLoop=1;jettySize=auto;html=1;exitX=1;exitY=0.857;exitDx=0;exitDy=0;entryX=0;entryY=0.5;entryDx=0;entryDy=0;exitPerimeter=0;strokeColor=#0008FF;" edge="1" parent="1" source="I92gJAP5rcWPBIsObnvG-150" target="I92gJAP5rcWPBIsObnvG-186">
          <mxGeometry relative="1" as="geometry">
            <Array as="points">
              <mxPoint x="820" y="710" />
              <mxPoint x="820" y="870" />
              <mxPoint x="580" y="870" />
              <mxPoint x="580" y="1100" />
            </Array>
          </mxGeometry>
        </mxCell>
      </root>
    </mxGraphModel>
  </diagram>
</mxfile>
